<mxfile host="app.diagrams.net" modified="2023-08-14T05:58:05.586Z" agent="Mozilla/5.0 (Windows NT 10.0; Win64; x64) AppleWebKit/537.36 (KHTML, like Gecko) Chrome/115.0.0.0 Safari/537.36 Edg/115.0.1901.203" etag="DJY_g8HEFi1uoE5eBTn4" version="21.6.8" type="github">
  <diagram name="Page-1" id="6IKza2lpsUr6sdjIMytS">
    <mxGraphModel dx="794" dy="501" grid="1" gridSize="10" guides="1" tooltips="1" connect="1" arrows="1" fold="1" page="1" pageScale="1" pageWidth="850" pageHeight="1100" math="0" shadow="0">
      <root>
        <mxCell id="0" />
        <mxCell id="1" parent="0" />
        <mxCell id="lSijH3yCQFnMYCVT67lt-7" style="edgeStyle=orthogonalEdgeStyle;rounded=0;orthogonalLoop=1;jettySize=auto;html=1;exitX=0;exitY=0.5;exitDx=0;exitDy=0;entryX=1;entryY=0.5;entryDx=0;entryDy=0;" parent="1" source="lSijH3yCQFnMYCVT67lt-1" target="lSijH3yCQFnMYCVT67lt-2" edge="1">
          <mxGeometry relative="1" as="geometry" />
        </mxCell>
        <mxCell id="lSijH3yCQFnMYCVT67lt-1" value="cutlass_tensorop_d884gemm_32x32_16x3_nn_align1" style="rounded=0;whiteSpace=wrap;html=1;" parent="1" vertex="1">
          <mxGeometry x="390" y="280" width="330" height="60" as="geometry" />
        </mxCell>
        <mxCell id="lSijH3yCQFnMYCVT67lt-10" style="edgeStyle=orthogonalEdgeStyle;rounded=0;orthogonalLoop=1;jettySize=auto;html=1;exitX=0.5;exitY=1;exitDx=0;exitDy=0;" parent="1" source="lSijH3yCQFnMYCVT67lt-2" edge="1">
          <mxGeometry relative="1" as="geometry">
            <mxPoint x="247.5" y="410" as="targetPoint" />
          </mxGeometry>
        </mxCell>
        <mxCell id="lSijH3yCQFnMYCVT67lt-2" value="GemmUniversalAdapter" style="rounded=0;whiteSpace=wrap;html=1;" parent="1" vertex="1">
          <mxGeometry x="150" y="280" width="195" height="60" as="geometry" />
        </mxCell>
        <mxCell id="lSijH3yCQFnMYCVT67lt-8" value="GemmKernel" style="text;whiteSpace=wrap;" parent="1" vertex="1">
          <mxGeometry x="510" y="250" width="100" height="40" as="geometry" />
        </mxCell>
        <mxCell id="lSijH3yCQFnMYCVT67lt-12" style="edgeStyle=orthogonalEdgeStyle;rounded=0;orthogonalLoop=1;jettySize=auto;html=1;exitX=0.5;exitY=1;exitDx=0;exitDy=0;entryX=0.5;entryY=0;entryDx=0;entryDy=0;" parent="1" source="lSijH3yCQFnMYCVT67lt-13" target="lSijH3yCQFnMYCVT67lt-14" edge="1">
          <mxGeometry relative="1" as="geometry" />
        </mxCell>
        <mxCell id="lSijH3yCQFnMYCVT67lt-13" value="GemmUniversalBase" style="rounded=0;whiteSpace=wrap;html=1;" parent="1" vertex="1">
          <mxGeometry x="151.25" y="530" width="195" height="60" as="geometry" />
        </mxCell>
        <mxCell id="lSijH3yCQFnMYCVT67lt-14" value="GemmUniversal::operator()" style="rounded=0;whiteSpace=wrap;html=1;" parent="1" vertex="1">
          <mxGeometry x="151.25" y="650" width="196.25" height="60" as="geometry" />
        </mxCell>
        <mxCell id="lSijH3yCQFnMYCVT67lt-16" style="edgeStyle=orthogonalEdgeStyle;rounded=0;orthogonalLoop=1;jettySize=auto;html=1;exitX=0.5;exitY=1;exitDx=0;exitDy=0;" parent="1" source="lSijH3yCQFnMYCVT67lt-15" target="lSijH3yCQFnMYCVT67lt-13" edge="1">
          <mxGeometry relative="1" as="geometry" />
        </mxCell>
        <mxCell id="lSijH3yCQFnMYCVT67lt-15" value="DefaultGemmUniversal" style="rounded=0;whiteSpace=wrap;html=1;" parent="1" vertex="1">
          <mxGeometry x="151.25" y="410" width="195" height="60" as="geometry" />
        </mxCell>
        <mxCell id="YRYaeK-AZREkBChLlPdV-4" value="" style="edgeStyle=orthogonalEdgeStyle;rounded=0;orthogonalLoop=1;jettySize=auto;html=1;" edge="1" parent="1" source="YRYaeK-AZREkBChLlPdV-1" target="YRYaeK-AZREkBChLlPdV-3">
          <mxGeometry relative="1" as="geometry" />
        </mxCell>
        <mxCell id="YRYaeK-AZREkBChLlPdV-1" value="epilogue" style="rounded=0;whiteSpace=wrap;html=1;" vertex="1" parent="1">
          <mxGeometry x="368" y="590" width="120" height="60" as="geometry" />
        </mxCell>
        <mxCell id="YRYaeK-AZREkBChLlPdV-2" value="" style="shape=curlyBracket;whiteSpace=wrap;html=1;rounded=1;labelPosition=left;verticalLabelPosition=middle;align=right;verticalAlign=middle;" vertex="1" parent="1">
          <mxGeometry x="348" y="620" width="20" height="120" as="geometry" />
        </mxCell>
        <mxCell id="YRYaeK-AZREkBChLlPdV-3" value="linear_combination.h" style="rounded=0;whiteSpace=wrap;html=1;" vertex="1" parent="1">
          <mxGeometry x="520" y="590" width="120" height="60" as="geometry" />
        </mxCell>
      </root>
    </mxGraphModel>
  </diagram>
</mxfile>
